<?xml version="1.0" encoding="utf-8"?>
<!-- Generator: Adobe Illustrator 24.0.0, SVG Export Plug-In . SVG Version: 6.00 Build 0)  -->
<svg version="1.1" id="Capa_1" xmlns="http://www.w3.org/2000/svg" xmlns:xlink="http://www.w3.org/1999/xlink" x="0px" y="0px"
	 viewBox="0 0 752 752" style="enable-background:new 0 0 752 752;" xml:space="preserve">
<style type="text/css">
	.st0{fill:#FFFFFF;}
</style>
<g>
	<path d="M372.7,532c-33.1-24.4-75.5-57.3-109.4-95.3c-38.9-43.6-58.6-85.4-58.6-124.5c0-21.6,9.4-44.9,25.2-62.4
		c18-19.9,42.6-30.9,69.2-30.9c32.2,0,58.7,24.4,76.8,44.9c18.1-20.6,44.6-44.9,76.8-44.9c26.7,0,51.3,11,69.2,30.9
		c15.8,17.5,25.2,40.8,25.2,62.4c0,39-19.7,80.9-58.6,124.5c-34,38.1-76.3,70.9-109.4,95.3l-3.3,2.4L372.7,532z"/>
	<path class="st0" d="M452.8,224.4c55.1,0,88.9,48.2,88.9,87.7c0,85.5-97.2,164.8-165.8,215.4C307.4,477,210.2,397.7,210.2,312.2
		c0-39.5,33.8-87.7,88.9-87.7c30.8,0,57.1,24.5,76.8,47.9C395.7,249,422,224.4,452.8,224.4 M299.2,224.5
		C299.2,224.5,299.2,224.5,299.2,224.5L299.2,224.5 M452.8,213.4c-16.2,0-32.6,5.8-48.9,17.2c-9.1,6.4-18.3,14.7-27.9,25.1
		c-9.6-10.4-18.8-18.7-27.9-25.1c-16.2-11.4-32.7-17.2-48.9-17.2l0,0h0c-28.2,0-54.3,11.6-73.3,32.7c-16.7,18.5-26.6,43.2-26.6,66.1
		c0,21.8,5.9,44.6,17.4,67.6c9.9,19.6,24.2,40,42.5,60.6c34.3,38.4,76.9,71.5,110.3,96.1l6.5,4.8l6.5-4.8
		c33.3-24.5,76-57.7,110.3-96.1c18.4-20.6,32.7-41,42.5-60.6c11.6-23,17.4-45.7,17.4-67.6c0-22.9-10-47.6-26.6-66.1
		C507.1,225.1,481.1,213.4,452.8,213.4L452.8,213.4z"/>
</g>
</svg>
