<?xml version="1.0" encoding="UTF-8"?>
<svg width="752pt" height="752pt" version="1.1" viewBox="0 0 752 752" xmlns="http://www.w3.org/2000/svg">
 <path d="m214.98 229.19c-10.461 0-18.941 8.4805-18.941 18.941 0 10.461 8.4805 18.941 18.941 18.941h322.04c10.461 0 18.941-8.4805 18.941-18.941 0-10.461-8.4805-18.941-18.941-18.941zm0 127.87c-10.461 0-18.941 8.4805-18.941 18.941s8.4805 18.941 18.941 18.941h322.04c10.461 0 18.941-8.4805 18.941-18.941s-8.4805-18.941-18.941-18.941zm0 127.87c-10.461 0-18.941 8.4805-18.941 18.941 0 10.461 8.4805 18.941 18.941 18.941h322.04c10.461 0 18.941-8.4805 18.941-18.941 0-10.461-8.4805-18.941-18.941-18.941z"/>
</svg>
