<?xml version="1.0" encoding="UTF-8"?>
<svg width="752pt" height="752pt" version="1.1" fill="red" viewBox="0 0 752 752" xmlns="http://www.w3.org/2000/svg">
 <path d="m478.77 563.67c-6.2148 0-12.371-1.9688-17.598-5.8164l-85.098-62.852-85.113 62.852c-5.2383 3.8477-11.41 5.8164-17.598 5.8164-6.0977 0-12.195-1.9102-17.391-5.6992-10.465-7.5625-14.801-21.043-10.699-33.297l33.445-100.38-86.059-61.535c-10.508-7.5312-14.934-20.957-10.953-33.238 3.9648-12.211 15.348-20.453 28.18-20.453h0.20703l105.82 0.84375 31.922-100.87c3.8789-12.297 15.316-20.676 28.207-20.676 12.891 0 24.344 8.375 28.191 20.676l31.906 100.87 105.76-0.84375h0.28125c12.773 0 24.227 8.2422 28.105 20.453 4.0117 12.297-0.35547 25.707-10.879 33.238l-86.016 61.535 33.492 100.38c4.0391 12.223-0.29688 25.707-10.672 33.297-5.1992 3.7891-11.34 5.6992-17.438 5.6992z"/>
</svg>
