<?xml version="1.0" encoding="UTF-8"?>
<svg width="752pt" height="752pt" version="1.1" viewBox="0 0 752 752" xmlns="http://www.w3.org/2000/svg">
 <defs>
  <clipPath id="a">
   <path d="m139.21 139.21h473.58v473.58h-473.58z"/>
  </clipPath>
 </defs>
 <g clip-path="url(#a)">
  <path d="m376 139.21c-62.801 0-123.03 24.949-167.43 69.355s-69.355 104.63-69.355 167.43 24.949 123.03 69.355 167.44 104.63 69.355 167.43 69.355 123.03-24.949 167.44-69.355 69.355-104.64 69.355-167.44-24.949-123.03-69.355-167.43-104.64-69.355-167.44-69.355zm107.34 327.76h0.003906c-31.996-7.2227-64.684-10.926-97.48-11.051v-79.918h108.53c0.11719 30.664-3.5938 61.223-11.051 90.969zm-225.74-90.969h108.53v79.918h0.003907c-32.793 0.21094-65.473 3.9141-97.48 11.051-7.4688-29.742-11.18-60.301-11.051-90.969zm16.379-109.52c30.289 6.625 61.152 10.262 92.152 10.855v78.93h-108.53c1.4922-30.52 7-60.707 16.379-89.785zm-36.109 89.785h-78.93c4.1406-41.539 20.172-81 46.172-113.66 15.719 8.2656 32.25 14.879 49.332 19.734-9.5156 30.473-15.086 62.035-16.574 93.926zm147.99-196.34c35.125 5.3281 65.711 39.465 85.441 87.809-28.078 6.1328-56.703 9.4375-85.441 9.8672zm-19.734 0 0.003907 97.676c-28.727-0.625-57.332-3.9297-85.445-9.8672 19.734-49.328 50.516-82.48 85.445-87.809zm0 315.72 0.003907 117.41c-39.465-5.918-73.012-46.965-91.953-105.96h-0.003906c30.164-7.0547 60.984-10.891 91.957-11.441zm19.734 116.42v-116.42 0.003906c30.926 0.1875 61.746 3.625 91.953 10.258-18.941 59.199-52.684 100.24-91.953 107.15zm0-235.8v-78.93c30.965-0.11328 61.84-3.3555 92.152-9.6719 9.3125 28.691 14.816 58.48 16.379 88.602zm111.69-94.52c17.098-4.8047 33.637-11.422 49.332-19.734 26.105 32.824 42.141 72.508 46.172 114.25h-78.93c-1.4531-32.086-7.0234-63.852-16.574-94.52zm36.309-34.531c-13.684 6.582-27.953 11.867-42.625 15.785-9.8516-27.07-25.316-51.75-45.383-72.418 33.562 11.32 63.797 30.777 88.008 56.633zm-227.32-56.633c-20.023 20.625-35.488 45.23-45.387 72.223-14.801-3.8125-29.207-9.0312-43.016-15.59 24.32-25.91 54.699-45.371 88.402-56.633zm-68.668 205.41c-0.10547 32.379 3.7383 64.652 11.445 96.098-19.066 5.3477-37.316 13.246-54.266 23.484-23.496-35.461-36.051-77.043-36.109-119.58zm-31.18 135.56c15.148-8.5898 31.328-15.223 48.148-19.73 9.7344 33.836 27.465 64.832 51.699 90.375-39.367-13.492-74.023-38.012-99.848-70.645zm238.77 69.852v0.003907c24.234-25.543 41.965-56.539 51.699-90.375 16.848 4.4219 33.039 11.059 48.145 19.73-25.82 32.633-60.48 57.152-99.844 70.645zm111.49-85.836v0.003906c-16.93-10.32-35.188-18.285-54.266-23.68 7.707-31.383 11.551-63.586 11.445-95.902h78.93c-0.058594 42.539-12.617 84.121-36.109 119.58z"/>
 </g>
</svg>
